# AST/ASF file generated using VICON BodyLanguage
# -----------------------------------------------
:version 1.10
:name VICON
:units
  mass 1.0
  length 0.45
  angle deg
:documentation
   .ast/.asf automatically generated from VICON data using
   VICON BodyBuilder and BodyLanguage model FoxedUp or BRILLIANT.MOD
:root
   order TX TY TZ RX RY RZ
   axis XYZ
   position 0 0 0  
   orientation 0 0 0 
:bonedata
  begin
     id 1 
     name lhipjoint
     direction 0.627457 -0.725269 0.283342 
     length 2.53237 
     axis 0 0 0  XYZ
  end
  begin
     id 2 
     name lfemur
     direction 0.34202 -0.939693 0  
     length 7.32496  
     axis 0 0 20  XYZ
    dof rx ry rz
    limits (-160.0 20.0)
           (-70.0 70.0)
           (-60.0 70.0)
  end
  begin
     id 3 
     name ltibia
     direction 0.34202 -0.939693 0   
     length 7.69674   
     axis 0 0 20   XYZ
    dof rx
    limits (-10.0 170.0)
  end
  begin
     id 4 
     name lfoot
     direction 0.127289 -0.349722 0.928166   
     length 1.8612   
     axis -90 7.62852e-016 20   XYZ
    dof rx rz
    limits (-45.0 90.0)
           (-70.0 20.0)
  end
  begin
     id 5 
     name ltoes
     direction 1.53561e-011 -4.21864e-011 1   
     length 0.925608   
     axis -90 7.62852e-016 20   XYZ
    dof rx
    limits (-90.0 20.0)
  end
  begin
     id 6 
     name rhipjoint
     direction -0.609094 -0.738725 0.288599   
     length 2.48624  
     axis 0 0 0  XYZ 
  end
  begin
     id 7 
     name rfemur
     direction -0.34202 -0.939693 0   
     length 7.44259   
     axis 0 0 -20   XYZ
    dof rx ry rz
    limits (-160.0 20.0)
           (-70.0 70.0)
           (-70.0 60.0)
  end
  begin
     id 8 
     name rtibia
     direction -0.34202 -0.939693 0   
     length 7.7781   
     axis 0 0 -20   XYZ
    dof rx
    limits (-10.0 170.0)
 end
 begin
     id 9 
     name rfoot
     direction -0.107015 -0.294021 0.949789   
     length 2.14741  
     axis -90 -7.62852e-016 -20   XYZ
    dof rx rz
    limits (-45.0 90.0)
           (-20.0 70.0)
  end
  begin
     id 10 
     name rtoes
     direction -1.53497e-011 -4.21924e-011 1   
     length 1.0706   
     axis -90 -7.62852e-016 -20   XYZ
    dof rx
    limits (-90.0 20.0)
  end
  begin
     id 11 
     name lowerback
     direction -0.0142066 0.998112 -0.0597545   
     length 1.86627   
     axis 0 0 0   XYZ
    dof rx ry rz
    limits (-20.0 45.0)
           (-30.0 30.0)
           (-30.0 30.0)
  end
  begin
     id 12 
     name upperback
     direction 0.00547294 0.999744 0.0219437   
     length 1.86272   
     axis 0 0 0   XYZ
    dof rx ry rz
    limits (-20.0 45.0)
           (-30.0 30.0)
           (-30.0 30.0)
  end
  begin
     id 13 
     name thorax
     direction 0.0116162 0.998704 0.0495538   
     length 1.8703   
     axis 0 0 0   XYZ
    dof rx ry rz
    limits (-20.0 45.0)
           (-30.0 30.0)
           (-30.0 30.0)
  end
  begin
     id 14 
     name lowerneck
     direction -0.0106574 0.998739 0.0490586   
     length 1.8074   
     axis 0 0 0   XYZ
    dof rx ry rz
    limits (-20.0 45.0)
           (-30.0 30.0)
           (-30.0 30.0)
  end
  begin
     id 15 
     name upperneck
     direction 0.030527 0.976587 -0.212944   
     length 1.80681   
     axis 0 0 0   XYZ
    dof rx ry rz
    limits (-20.0 45.0)
           (-30.0 30.0)
           (-30.0 30.0)
  end
  begin
     id 16
     name head
     direction 0.00869225 0.997035 -0.0764531  
     length 1.8313  
     axis 0 0 0   XYZ
    dof rx ry rz
    limits (-20.0 45.0)
           (-30.0 30.0)
           (-30.0 30.0)
  end
  begin
     id 17 
     name lclavicle
     direction 0.915958 0.399447 0.0382386  
     length 3.78965  
     axis 0 0 0   XYZ
    dof ry rz
    limits (-20.0 10.0)
           (0.0 20.0)
  end
  begin
     id 18 
     name lhumerus
     direction 1 -4.48967e-011 3.19303e-027   
     length 4.78095   
     axis -180 -30 -90   XYZ
    dof rx ry rz
    limits (-60.0 90.0)
           (-90.0 90.0)
           (-90.0 90.0)
  end
  begin
     id 19
     name lradius
     direction 1 -4.48967e-011 -3.77974e-027   
     length 3.58615   
     axis -180 -30 -90   XYZ
    dof rx
    limits (-10.0 170.0)
  end
  begin
     id 20
     name lwrist
     direction 1 -4.48927e-011 1.2807e-027   
     length 1.79307   
     axis 1.91374e-015 90 90   XYZ
    dof ry
    limits (-180.0 0.0)
 end
  begin
     id 21 
     name lhand
     direction 1 -4.49036e-011 2.5614e-027   
     length 0.659812   
     axis -1.63439e-015 90 90   XYZ
    dof rx rz
    limits (-90.0 90.0)
           (-45.0 45.0)
  end
  begin
     id 22 
     name lfingers
     direction 1 -4.49052e-011 5.1228e-027   
     length 0.531957   
     axis -3.26879e-015 90 90   XYZ
    dof rx
    limits (0.0 90.0)
  end
  begin
     id 23
     name lthumb
     direction 0.707107 -6.35012e-011 0.707107   
     length 0.763787   
     axis -90 45 2.85299e-015   XYZ
    dof rx rz
    limits (-45.0 45.0)
           (-45.0 45.0)
  end
  begin
     id 24 
     name rclavicle
     direction -0.895351 0.435135 0.0948887   
     length 3.70497  
     axis 0 0 0   XYZ 
    dof ry rz
    limits (-10.0 20.0)
           (-20.0 0.0)
  end
  begin
     id 25 
     name rhumerus
     direction -1 -4.48971e-011 2.38946e-027  
     length 4.48913   
     axis -180 30 90   XYZ
    dof rx ry rz
    limits (-90.0 60.0)
           (-90.0 90.0)
           (-90.0 90.0)
  end
  begin
     id 26 
     name rradius
     direction -1 -4.4895e-011 4.38668e-027   
     length 3.7051   
     axis -180 30 90   XYZ
    dof rx
    limits (-10.0 170.0)
  end
  begin
     id 27 
     name rwrist
     direction -1 -4.49007e-011 1.2807e-027   
     length 1.85255   
     axis 1.91374e-015 -90 -90   XYZ
    dof ry
    limits (-180.0 0.0)
  end
  begin
     id 28
     name rhand
     direction -1 -4.48851e-011 2.5614e-027   
     length 0.449136   
     axis -1.63439e-015 -90 -90   XYZ
    dof rx rz
    limits (-90.0 90.0)
           (-45.0 45.0)
  end
  begin
     id 29
     name rfingers
     direction -1 -4.49128e-011 5.1228e-027   
     length 0.362105   
     axis -3.26879e-015 -90 -90   XYZ
    dof rx
    limits (0.0 90.0)
  end
  begin
     id 30
     name rthumb
     direction -0.707107 -6.34851e-011 0.707107   
     length 0.519912   
     axis -90 -45 -2.85299e-015   XYZ
    dof rx rz
    limits (-45.0 45.0)
           (-45.0 45.0)
  end
:hierarchy
  begin
    root lhipjoint rhipjoint lowerback
    lhipjoint lfemur
    lfemur ltibia
    ltibia lfoot
    lfoot ltoes
    rhipjoint rfemur
    rfemur rtibia
    rtibia rfoot
    rfoot rtoes
    lowerback upperback
    upperback thorax
    thorax lowerneck lclavicle rclavicle
    lowerneck upperneck
    upperneck head
    lclavicle lhumerus
    lhumerus lradius
    lradius lwrist
    lwrist lhand lthumb
    lhand lfingers
    rclavicle rhumerus
    rhumerus rradius
    rradius rwrist
    rwrist rhand rthumb
    rhand rfingers
  end

#!OML:ASF I:\Actors\actors\Patient Classification 2\Patient 1\Session 1\actor1.ASF
:FULLY-SPECIFIED
:DEGREES
1
root -0.508921 18.6162 5.49858 -0.606653 -5.64875 -0.286086
lowerback 6.61246 1.42512 -2.76035
upperback -1.53776 1.70425 0.754382
thorax -5.41756 0.94449 2.14373
lowerneck -13.7842 -1.57445 -1.15329
upperneck 21.9263 -2.21016 1.15357
head 9.18914 -1.00677 0.324735
rclavicle -3.76235e-015 -1.81391e-015
rhumerus -36.7674 13.811 -92.7953
rradius 28.756
rwrist -2.55717
rhand -11.4819 -40.5825
rfingers 7.12502
rthumb 14.5562 -70.0517
lclavicle -3.76235e-015 -1.81391e-015
lhumerus 0 0 0
lradius 0
lwrist 0
lhand 0 0
lfingers 0
lthumb 0 0
rfemur 6.93948 10.4975 13.6845
rtibia 1.90833e-014
rfoot -17.2792 -14.2253
rtoes -8.7709
lfemur -2.03492 -3.33259 -14.6754
ltibia 22.3105
lfoot -23.4819 13.6822
ltoes -54.1194
2
root -0.509193 18.6158 5.50068 -0.620242 -5.65987 -0.278388
lowerback 6.59262 1.42685 -2.7769
upperback -1.51828 1.70584 0.754681
thorax -5.38648 0.945189 2.15382
lowerneck -13.779 -1.59017 -1.16459
upperneck 21.9327 -2.22391 1.12973
head 9.19041 -1.01677 0.31685
rclavicle 5.16374e-017 -6.55989e-015
rhumerus -36.7262 13.7625 -92.7661
rradius 28.7925
rwrist -2.50169
rhand -11.308 -40.8087
rfingers 7.12502
rthumb 14.7238 -70.2658
lclavicle 5.16374e-017 -6.55989e-015
lhumerus 0 0 0
lradius 0
lwrist 0
lhand 0 0
lfingers 0
lthumb 0 0
rfemur 6.95614 10.5098 13.6821
rtibia 4.77083e-015
rfoot -17.2242 -14.2755
rtoes -9.17657
lfemur -2.03432 -3.24146 -14.6799
ltibia 22.3386
lfoot -23.4523 13.6975
ltoes -54.2879
3
root -0.509572 18.6141 5.50258 -0.624529 -5.6809 -0.328365
lowerback 6.56777 1.42433 -2.73372
upperback -1.50373 1.70819 0.778201
thorax -5.35659 0.944837 2.15449
lowerneck -13.7666 -1.58305 -1.1931
upperneck 21.9321 -2.20233 1.10921
head 9.18771 -1.01137 0.317284
rclavicle -2.4687e-014 -4.06266e-015
rhumerus -36.6988 13.7538 -92.7239
rradius 28.8385
rwrist -2.43645
rhand -11.2492 -40.9038
rfingers 7.12502
rthumb 14.7804 -70.3568
lclavicle -2.4687e-014 -4.06266e-015
lhumerus 0 0 0
lradius 0
lwrist 0
lhand 0 0
lfingers 0
lthumb 0 0
rfemur 6.9735 10.5305 13.7447
rtibia 2.54444e-014
rfoot -17.2109 -14.3001
rtoes -9.35442
lfemur -2.06536 -3.26484 -14.6283
ltibia 22.4479
lfoot -23.5525 13.688
ltoes -54.2579
4
root -0.509636 18.6096 5.50386 -0.612507 -5.68466 -0.39318
lowerback 6.54562 1.41103 -2.64807
upperback -1.49575 1.69922 0.794646
thorax -5.33283 0.937578 2.12506
lowerneck -13.7907 -1.56868 -1.22635
upperneck 21.9387 -2.17613 1.11765
head 9.19467 -1.00082 0.328674
rclavicle -9.96117e-015 7.86442e-015
rhumerus -36.6808 13.7746 -92.7094
rradius 28.8791
rwrist -2.40942
rhand -11.3551 -40.8589
rfingers 7.12502
rthumb 14.6784 -70.3193
lclavicle -9.96117e-015 7.86442e-015
lhumerus 0 0 0
lradius 0
lwrist 0
lhand 0 0
lfingers 0
lthumb 0 0
rfemur 6.98749 10.5323 13.8171
rtibia 1.43125e-014
rfoot -17.2653 -14.2751
rtoes -9.23128
lfemur -2.05121 -3.25461 -14.5542
ltibia 22.4291
lfoot -23.5995 13.6724
ltoes -54.2022
5
root -0.508331 18.6143 5.50842 -0.57947 -5.63304 -0.477383
lowerback 6.6152 1.40494 -2.4481
upperback -1.58547 1.70334 0.744716
thorax -5.45863 0.934723 1.95761
lowerneck -13.7526 -1.59144 -1.21672
upperneck 22.0028 -2.23172 1.201
head 9.21144 -1.01689 0.349115
rclavicle -7.41592e-015 -9.3025e-016
rhumerus -36.8551 14.1143 -93.0191
rradius 28.752
rwrist -3.13241
rhand -12.1385 -40.5604
rfingers 7.12502
rthumb 13.9235 -70.0742
lclavicle -7.41592e-015 -9.3025e-016
lhumerus -40.6534 -2.99811 91.1461
lradius 36.4447
lwrist -1.62398
lhand -6.29736 -24.5849
lfingers 7.12502
lthumb 19.5465 4.45258
rfemur 6.98041 10.4771 13.9021
rtibia -3.18055e-015
rfoot -17.2646 -14.2922
rtoes -9.4103
lfemur -2.06101 -3.14952 -14.4598
ltibia 22.3768
lfoot -23.4339 13.7224
ltoes -54.4028
6
root -0.530199 18.6197 5.5211 -0.361653 -5.68261 0.0324235
lowerback 6.35785 1.64513 -3.04374
upperback -2.0468 1.95452 0.342303
thorax -5.81799 1.08138 1.84308
lowerneck -12.6558 -1.76385 -0.724686
upperneck 21.9097 -2.61415 1.28932
head 8.97432 -1.15245 0.261623
rclavicle 3.18677e-015 3.37934e-015
rhumerus -37.73 13.8678 -93.7407
rradius 28.5172
rwrist -4.11822
rhand -13.1287 -40.0784
rfingers 7.12502
rthumb 12.9691 -69.6554
lclavicle 3.18677e-015 3.37934e-015
lhumerus -41.509 -4.05013 91.0981
lradius 36.4931
lwrist -1.10178
lhand -6.0636 -24.8199
lfingers 7.12502
lthumb 19.7712 4.1946
rfemur 6.70728 10.5006 13.348
rtibia -2.54444e-014
rfoot -17.295 -14.2353
rtoes -9.09088
lfemur -2.34086 -3.02072 -14.9531
ltibia 22.2965
lfoot -23.1683 13.9649
ltoes -54.5012
7
root -0.537181 18.6207 5.52658 -0.277791 -5.67617 0.221954
lowerback 6.32581 1.6613 -3.31921
upperback -2.16364 1.94937 0.295757
thorax -5.93135 1.09098 1.94859
lowerneck -12.7548 -1.76436 -0.922122
upperneck 22.1421 -2.61055 1.44198
head 9.07795 -1.14873 0.345568
rclavicle 3.18646e-014 -1.98785e-016
rhumerus -37.8776 14.1403 -93.926
rradius 28.4287
rwrist -4.30272
rhand -13.0088 -40.0778
rfingers 7.12502
rthumb 13.0848 -69.6474
lclavicle 3.18646e-014 -1.98785e-016
lhumerus -41.6958 -4.14227 91.1211
lradius 36.523
lwrist -0.950632
lhand -5.8107 -24.8834
lfingers 7.12502
lthumb 20.0143 4.10585
rfemur 6.61546 10.4833 13.1371
rtibia -2.06736e-014
rfoot -17.3395 -14.1945
rtoes -8.8162
lfemur -2.40652 -2.97349 -15.1423
ltibia 22.1762
lfoot -22.998 14.0883
ltoes -54.7583
8
root -0.537084 18.6207 5.52724 -0.268256 -5.65984 0.219533
lowerback 6.34572 1.65276 -3.31513
upperback -2.19065 1.93721 0.295634
thorax -5.97031 1.0857 1.94665
lowerneck -12.9698 -1.76286 -1.34524
upperneck 22.389 -2.5981 1.78926
head 9.21458 -1.1379 0.534452
rclavicle 2.60222e-014 -5.06901e-015
rhumerus -37.8683 14.0771 -93.8746
rradius 28.482
rwrist -3.97229
rhand -12.9047 -39.9994
rfingers 7.12502
rthumb 13.1851 -69.5625
lclavicle 2.60222e-014 -5.06901e-015
lhumerus -41.7824 -4.20276 91.132
lradius 36.5813
lwrist -0.89623
lhand -5.92613 -24.959
lfingers 7.12502
lthumb 19.9034 4.04178
rfemur 6.61109 10.4658 13.1404
rtibia 2.54444e-014
rfoot -17.3503 -14.1935
rtoes -8.65531
lfemur -2.3571 -2.97299 -15.1404
ltibia 22.0569
lfoot -22.9241 14.1162
ltoes -54.7984
9
root -0.536286 18.6204 5.52867 -0.285378 -5.65518 0.228183
lowerback 6.36196 1.64832 -3.32022
upperback -2.19434 1.93031 0.297871
thorax -5.98335 1.08275 1.95218
lowerneck -12.9642 -1.76071 -1.37718
upperneck 22.3955 -2.59625 1.82372
head 9.2167 -1.136 0.551876
rclavicle 2.93021e-014 -1.49089e-014
rhumerus -37.883 14.1656 -93.8933
rradius 28.5677
rwrist -3.97698
rhand -13.5869 -39.4959
rfingers 7.12502
rthumb 12.5274 -69.1003
lclavicle 2.93021e-014 -1.49089e-014
lhumerus -41.7893 -4.21151 91.1337
lradius 36.5718
lwrist -0.885484
lhand -6.01615 -25.0671
lfingers 7.12502
lthumb 19.8168 3.94269
rfemur 6.63028 10.4634 13.1293
rtibia 3.18055e-015
rfoot -17.3386 -14.179
rtoes -8.58111
lfemur -2.31794 -2.99433 -15.1554
ltibia 22.0182
lfoot -22.9307 14.1318
ltoes -54.7976
10
root -0.535254 18.6196 5.53141 -0.314995 -5.6594 0.234715
lowerback 6.37584 1.6482 -3.32729
upperback -2.18202 1.92966 0.306274
thorax -5.97882 1.08264 1.96482
lowerneck -12.7636 -1.74975 -0.954777
upperneck 22.1774 -2.58975 1.46842
head 9.09239 -1.13862 0.362313
rclavicle 2.59041e-015 -5.26779e-015
rhumerus -37.8858 14.2421 -93.8935
rradius 28.5916
rwrist -4.05359
rhand -13.271 -39.6593
rfingers 7.12502
rthumb 12.832 -69.2449
lclavicle 2.59041e-015 -5.26779e-015
lhumerus -41.7323 -4.17797 91.1477
lradius 36.8761
lwrist -1.53797
lhand -5.63997 -23.6831
lfingers 7.12502
lthumb 20.1784 5.28887
rfemur 6.67021 10.4713 13.1214
rtibia 0
rfoot -17.3447 -14.159
rtoes -8.6305
lfemur -2.27116 -3.03287 -15.1723
ltibia 22.0066
lfoot -22.9715 14.1353
ltoes -54.7582
11
root -0.534786 18.6189 5.53304 -0.31516 -5.65654 0.227512
lowerback 6.38048 1.64101 -3.32717
upperback -2.18284 1.92025 0.312758
thorax -5.98199 1.07818 1.97251
lowerneck -12.6736 -1.74485 -0.716909
upperneck 22.0687 -2.58778 1.26861
head 9.03175 -1.14064 0.255655
rclavicle -2.23943e-014 -3.8763e-015
rhumerus -37.8923 14.2538 -93.8817
rradius 28.5497
rwrist -4.104
rhand -11.8398 -40.5244
rfingers 7.12502
rthumb 14.2114 -70.0182
lclavicle -2.23943e-014 -3.8763e-015
lhumerus -41.7136 -4.1702 91.1516
lradius 37.0036
lwrist -1.71334
lhand -5.47299 -23.1728
lfingers 7.12502
lthumb 20.3389 5.7822
rfemur 6.67914 10.4685 13.1289
rtibia -2.22639e-014
rfoot -17.3629 -14.1514
rtoes -8.52216
lfemur -2.25835 -3.03595 -15.1679
ltibia 21.9924
lfoot -22.9481 14.1509
ltoes -54.7802
12
root -0.53489 18.6194 5.53325 -0.317219 -5.6656 0.229376
lowerback 6.40533 1.63732 -3.35128
upperback -2.19709 1.9126 0.321437
thorax -6.01201 1.07609 1.99515
lowerneck -12.6827 -1.74518 -0.715691
upperneck 22.0926 -2.58566 1.25432
head 9.04143 -1.14092 0.25067
rclavicle -2.41834e-014 -5.96354e-016
rhumerus -37.9051 14.2493 -93.8631
rradius 28.5369
rwrist -4.07826
rhand -11.1028 -40.946
rfingers 7.12502
rthumb 14.9215 -70.3885
lclavicle -2.41834e-014 -5.96354e-016
lhumerus -41.7279 -4.18238 91.1713
lradius 37.0279
lwrist -1.64644
lhand -5.42905 -23.0186
lfingers 7.12502
lthumb 20.3811 5.93187
rfemur 6.68041 10.4777 13.128
rtibia -1.59028e-015
rfoot -17.3742 -14.1538
rtoes -8.31296
lfemur -2.24843 -3.03581 -15.1711
ltibia 21.9793
lfoot -22.9297 14.1803
ltoes -54.8013
13
root -0.535014 18.6198 5.53362 -0.318858 -5.67904 0.224429
lowerback 6.43071 1.64016 -3.36792
upperback -2.21619 1.91461 0.336895
thorax -6.04803 1.07879 2.01944
lowerneck -12.6862 -1.74333 -0.740278
upperneck 22.1244 -2.57619 1.24602
head 9.05318 -1.13922 0.252932
rclavicle -2.51742e-014 2.28602e-015
rhumerus -37.9173 14.2359 -93.8272
rradius 28.5337
rwrist -3.98349
rhand -11.1644 -40.8474
rfingers 7.12502
rthumb 14.8621 -70.2943
lclavicle -2.51742e-014 2.28602e-015
lhumerus -41.6851 -4.12287 91.1794
lradius 36.9446
lwrist -1.70361
lhand -5.39656 -22.9085
lfingers 7.12502
lthumb 20.4124 6.03862
rfemur 6.68272 10.4912 13.133
rtibia 1.43125e-014
rfoot -17.3748 -14.1534
rtoes -8.2422
lfemur -2.24085 -3.05349 -15.165
ltibia 21.9767
lfoot -22.9684 14.1738
ltoes -54.732
14
root -0.53488 18.6195 5.53511 -0.333524 -5.6734 0.221514
lowerback 6.44138 1.63618 -3.37327
upperback -2.21938 1.90894 0.346491
thorax -6.0577 1.07657 2.03282
lowerneck -12.7031 -1.73769 -0.779852
upperneck 22.1613 -2.56681 1.2747
head 9.06994 -1.13472 0.270157
rclavicle 1.86361e-015 -4.37326e-015
rhumerus -37.9377 14.2451 -93.8175
rradius 28.538
rwrist -3.94093
rhand -11.4283 -40.6929
rfingers 7.12502
rthumb 14.6079 -70.1585
lclavicle 1.86361e-015 -4.37326e-015
lhumerus -41.6165 -4.06885 91.1742
lradius 36.8226
lwrist -1.79011
lhand -5.44857 -22.9631
lfingers 7.12502
lthumb 20.3624 5.98938
rfemur 6.70429 10.4874 13.138
rtibia -1.11319e-014
rfoot -17.3693 -14.1552
rtoes -8.33173
lfemur -2.21994 -3.05682 -15.1623
ltibia 21.9756
lfoot -22.9935 14.1529
ltoes -54.7081
15
root -0.535342 18.6187 5.53707 -0.378722 -5.66492 0.222382
lowerback 6.45763 1.63156 -3.38604
upperback -2.20347 1.9016 0.352711
thorax -6.05044 1.07324 2.04721
lowerneck -12.7129 -1.72962 -0.801978
upperneck 22.1676 -2.55851 1.308
head 9.07464 -1.129 0.286068
rclavicle 3.01873e-014 -3.77691e-015
rhumerus -37.9439 14.2946 -93.8373
rradius 28.5465
rwrist -4.00764
rhand -11.8043 -40.6424
rfingers 7.12502
rthumb 14.2456 -70.1338
lclavicle 3.01873e-014 -3.77691e-015
lhumerus -41.5834 -4.06767 91.1781
lradius 36.7875
lwrist -1.82617
lhand -5.47796 -22.9767
lfingers 7.12502
lthumb 20.3341 5.97874
rfemur 6.7608 10.4842 13.1483
rtibia -1.27222e-014
rfoot -17.3894 -14.1537
rtoes -8.44671
lfemur -2.16268 -3.06044 -15.1648
ltibia 21.9698
lfoot -23.0042 14.1249
ltoes -54.6984
